<?xml version="1.0" encoding="utf-8"?>
<!-- Generator: Adobe Illustrator 27.5.0, SVG Export Plug-In . SVG Version: 6.00 Build 0)  -->
<svg version="1.1" xmlns="http://www.w3.org/2000/svg" xmlns:xlink="http://www.w3.org/1999/xlink" x="0px" y="0px"
	 viewBox="0 0 528.2 116.41" style="enable-background:new 0 0 528.2 116.41;" xml:space="preserve">
<style type="text/css">
	.st0{fill:#3CB497;}
	.st1{fill:#DD005F;}
	.st2{fill:#565655;}
	.st3{fill:none;stroke:#000000;stroke-width:4;stroke-miterlimit:10;}
</style>
<g id="REHAU">
	<g>
		<path class="st0" d="M22.1,5.74c-5.57,2.94-11.25,5.89-15.99,10.83C1.7,21.1,0.54,28.77,3.17,34.56
			c2.73,5.57,6.52,10.62,11.04,15.35C11.06,34.24,14.42,18.36,22.1,5.74z"/>
		<path class="st1" d="M17.47,52.86c5.47,3.47,10.94,6.84,17.25,8.31c6.94,1.58,13.36-1.26,17.46-6.84
			c3.36-5.26,5.57-10.94,7.47-16.83C47.65,47.7,33.67,52.96,17.47,52.86z"/>
		<path class="st2" d="M58.59,10.47c-2.63-5.05-7.89-8.2-13.25-8.73c-6.52-0.32-12.62,0.53-18.51,1.89
			C40.5,8.06,54.17,19.41,61.11,32.56C61.43,24.99,61.75,16.89,58.59,10.47z"/>
	</g>
	<path d="M178.26,32.58V57h-6.95V32.58h-16.1c0,0,0,58.27,0,59.1c0.78,0,16.1-0.01,16.1-0.01V67.14h6.94l0.01,24.53
		c0,0,15.35,0,16.12,0c0-0.83-0.05-59.09-0.05-59.09H178.26z"/>
	<path d="M209.93,32.58c-5.09,0.04-8.64,4.4-8.6,9.66v49.43h16.03c0-0.82,0.01-24.53,0.01-24.53h6.52v24.53l15.87,0V32.58
		C239.76,32.58,211.7,32.57,209.93,32.58z M223.83,57h-6.49c0,0,0-11.57,0-11.97c0-2.19,0.82-3.01,2.81-3.01
		c0.19,0,3.68,0.01,3.68,0.01L223.83,57z"/>
	<path d="M106.22,61.75c3.72-0.43,7.97-4.34,7.97-9.47c0-2.66,0-10.04,0-10.04c-0.09-5.35-4.05-9.66-8.26-9.66
		c-2.89,0-30.45,0-30.45,0v59.09h15.87V67.14c0,0,3.87,0,3.95,0c1.95,0.01,2.79,0.93,2.79,3.07v21.47h16.12
		c0-0.21-0.02-18.55-0.02-20.32C114.19,66.15,109.98,62.19,106.22,61.75z M98.09,54.03c0.06,1.78-0.69,2.84-2.01,2.97l-4.74,0.03
		v-15c0,0,3.64-0.03,3.95-0.03c1.96,0,2.82,1.02,2.79,3.04L98.09,54.03z"/>
	<path d="M137.33,44.02h10.92V32.58l-27.08,0c0,0,0,58.26,0,59.09c0.8,0,27.08,0,27.08,0V80.24l-10.95-0.03V67.14h9.33V57h-9.33
		L137.33,44.02z"/>
	<path d="M284.18,85.74c0.88-2.16,1.06-4.37,1.06-7.13c0-0.66-0.02-46.03-0.02-46.03H269.5c0,0,0.01,45.24,0.01,45.64
		c0,1.25-0.85,3.34-3.47,3.34c-0.05,0-0.07,0-0.12,0c-2.69,0-3.47-2.07-3.47-3.34c0-0.4,0.01-45.64,0.01-45.64h-15.72
		c0,0-0.02,45.36-0.02,46.03c0,2.85,0.18,4.97,1.06,7.13c1.19,2.69,3.86,4.89,6.73,5.59c1.15,0.28,2.56,0.3,4.29,0.34h14.38
		c1.73-0.04,3.14-0.07,4.29-0.34C280.41,90.57,282.99,88.43,284.18,85.74z"/>
</g>
<g id="Linie">
	<line class="st3" x1="314.79" y1="115.68" x2="314.79" y2="7.97"/>
</g>
<g id="Company">
	<g>
		<path d="M369.5,55.26l5.72-22.12h4.52l-7.4,27.04h-5.36l-5.96-21.12l-5.96,21.12h-5.32l-7.44-27.04h4.52l5.76,22.12l5.96-22.12
			h4.96L369.5,55.26z"/>
		<path d="M382.28,35.5c0-1.76,1.12-2.56,2.6-2.56c1.28,0,2.56,0.8,2.56,2.56c0,1.8-1.28,2.52-2.56,2.52
			C383.4,38.02,382.28,37.3,382.28,35.5z M386.92,41.94v18.24h-4V41.94H386.92z"/>
		<path d="M395.29,41.94v2.12c1.04-1.44,3.04-2.52,5.8-2.52c4.32,0,6.32,2.48,6.32,7.12v11.52h-4V49.06c0-2.52-0.96-3.8-3.76-3.8
			c-1.76,0-3.4,0.8-4.24,1.72v13.2h-4V41.94H395.29z"/>
		<path d="M427.67,32.58v27.6h-3.84v-1.6c-1.08,1.12-2.88,2.04-5.2,2.04c-5.04,0-7.6-3.6-7.6-9.6c0-5.88,2.56-9.48,7.64-9.48
			c2.4,0,4.08,0.96,4.96,1.92V32.58H427.67z M419.63,56.9c1.96,0,3.28-0.8,4-1.72v-8.2c-0.68-0.8-1.96-1.72-3.96-1.72
			c-3.48,0-4.56,2.4-4.56,5.76C415.11,54.34,416.19,56.9,419.63,56.9z"/>
		<path d="M448.14,51.02c0,5.56-2.56,9.6-8.52,9.6c-5.64,0-8.32-4.08-8.32-9.52c0-5.52,2.6-9.56,8.48-9.56
			C445.54,41.54,448.14,45.58,448.14,51.02z M444.06,51.1c0-3.76-1.32-5.92-4.36-5.92c-3,0-4.28,2.16-4.28,5.84
			c0,3.8,1.32,5.96,4.28,5.96C442.75,56.98,444.06,54.74,444.06,51.1z"/>
		<path d="M470.35,55.86l4.12-13.92h4.2l-5.76,18.24h-4.44l-4.36-13.12l-4.32,13.12h-4.44l-5.8-18.24h4.2l4.16,13.92l4.28-13.92
			h3.88L470.35,55.86z"/>
		<path d="M352.94,67.5c-3,0-4.52,1.72-4.52,4.04c0,1.92,1.04,2.96,3.32,3.68l3.52,1.04c4.44,1.36,6.52,3.64,6.52,7.24
			c0,5-3.76,8.12-9.44,8.12c-6.04,0-8.4-2.88-9.48-5.04l3.08-2.4c0.96,1.96,2.4,3.68,6.4,3.68c3.24,0,4.96-1.64,4.96-4.04
			c0-2.04-1.32-3.08-3.56-3.76l-3.52-1.04c-4.4-1.36-6.32-3.8-6.32-7.24c0-4.16,2.72-8.04,9.04-8.04c4.52,0,7.2,1.92,8.56,4
			l-3.08,2.4C357.34,68.5,355.54,67.5,352.94,67.5z"/>
		<path d="M381.59,82.02c0,5.56-2.56,9.6-8.52,9.6c-5.64,0-8.32-4.08-8.32-9.52c0-5.52,2.6-9.56,8.48-9.56
			C378.99,72.54,381.59,76.58,381.59,82.02z M377.51,82.1c0-3.76-1.32-5.92-4.36-5.92c-3,0-4.28,2.16-4.28,5.84
			c0,3.8,1.32,5.96,4.28,5.96C376.19,87.98,377.51,85.74,377.51,82.1z"/>
		<path d="M389.15,85.62c0,1.4,0.4,2,1.68,2h0.96v3.72h-2.16c-3.44,0-4.48-2.12-4.48-5.16v-22.6h4V85.62z"/>
		<path d="M406.5,91.18v-2.12c-1.04,1.44-3.04,2.52-5.8,2.52c-4.32,0-6.32-2.48-6.32-7.12V72.94h4v11.12c0,2.52,0.96,3.8,3.76,3.8
			c1.76,0,3.4-0.8,4.24-1.72v-13.2h4v18.24H406.5z"/>
		<path d="M422.81,87.9c0.72,0,1.64-0.2,2.36-0.48l0.2,3.52c-0.92,0.36-2.44,0.68-3.8,0.68c-3.56,0-5-2.28-5-5.56v-9.68h-3.36v-3.04
			l3.36-0.4v-4.52l4.04-0.64v5.16h4.48v3.44h-4.48v9.16C420.61,87.06,421.33,87.9,422.81,87.9z"/>
		<path d="M427.66,66.5c0-1.76,1.12-2.56,2.6-2.56c1.28,0,2.56,0.8,2.56,2.56c0,1.8-1.28,2.52-2.56,2.52
			C428.78,69.02,427.66,68.3,427.66,66.5z M432.29,72.94v18.24h-4V72.94H432.29z"/>
		<path d="M452.69,82.02c0,5.56-2.56,9.6-8.52,9.6c-5.64,0-8.32-4.08-8.32-9.52c0-5.52,2.6-9.56,8.48-9.56
			C450.09,72.54,452.69,76.58,452.69,82.02z M448.61,82.1c0-3.76-1.32-5.92-4.36-5.92c-3,0-4.28,2.16-4.28,5.84
			c0,3.8,1.32,5.96,4.28,5.96C447.29,87.98,448.61,85.74,448.61,82.1z"/>
		<path d="M460.25,72.94v2.12c1.04-1.44,3.04-2.52,5.8-2.52c4.32,0,6.32,2.48,6.32,7.12v11.52h-4V80.06c0-2.52-0.96-3.8-3.76-3.8
			c-1.76,0-3.4,0.8-4.24,1.72v13.2h-4V72.94H460.25z"/>
		<path d="M482.97,75.62c-2.12,0-3,1.04-3,2.28c0,1,0.52,1.76,1.96,2.08l3.08,0.72c3.48,0.8,5.12,2.6,5.12,5.24
			c0,2.96-2.12,5.68-7.6,5.68c-3.88,0-6.08-1.68-7.2-3.08l2.36-2.44c1,1.16,2.4,2.44,4.96,2.44c2,0,3.4-0.76,3.4-2.28
			c0-1.08-0.84-1.72-2.32-2.08l-3.16-0.8c-3.08-0.76-4.64-2.6-4.64-5.12c0-2.64,1.92-5.72,7.16-5.72c3.48,0,5.52,1.36,6.68,2.64
			l-2.32,2.4C486.45,76.46,484.93,75.62,482.97,75.62z"/>
	</g>
</g>
</svg>
